<svg width="130" height="38" viewBox="0 0 130 38" fill="none" xmlns="http://www.w3.org/2000/svg">
<path fill-rule="evenodd" clip-rule="evenodd" d="M58.8046 14.7527C58.9536 14.8721 59.0728 15.0215 59.1629 15.2305L63.1945 24.757C63.2541 24.9063 63.2839 25.0258 63.2839 25.1452C63.2839 25.4439 63.1647 25.6828 62.9852 25.8619C62.8057 26.0412 62.5971 26.1307 62.358 26.1307C62.1487 26.1307 61.9698 26.071 61.8208 25.9515C61.6711 25.8321 61.5519 25.6828 61.4618 25.4737L60.626 23.5027H55.728L54.8922 25.5036C54.8027 25.7126 54.6829 25.8619 54.5338 25.9814C54.3841 26.1008 54.2053 26.1606 54.0258 26.1606C53.7278 26.1606 53.5185 26.071 53.3688 25.9217C53.2198 25.7724 53.1602 25.5633 53.1602 25.3244C53.1602 25.2535 53.1788 25.1826 53.2014 25.0969C53.2073 25.0743 53.2136 25.0507 53.2198 25.0258L57.311 15.2305C57.3706 15.0215 57.5203 14.8422 57.6991 14.7228C57.8786 14.6033 58.0574 14.5437 58.2667 14.5735C58.4462 14.5735 58.6251 14.6332 58.8046 14.7527ZM58.1773 17.8286L56.5347 21.6511H59.8199L58.1773 17.8286Z" fill="#128EBF"/>
<path d="M65.6736 14.006C65.3748 14.006 65.1662 14.0956 64.9569 14.3046C64.7781 14.4839 64.6582 14.7228 64.6582 15.0214V25.1451C64.6582 25.4438 64.7476 25.6528 64.9271 25.8619C65.1066 26.041 65.345 26.1605 65.6139 26.1605C65.8829 26.1605 66.122 26.0709 66.3306 25.8619C66.5101 25.6827 66.6293 25.4438 66.6293 25.1451V14.9915C66.6293 14.6929 66.5399 14.4839 66.3604 14.2748C66.1816 14.0956 65.9723 14.006 65.6736 14.006Z" fill="#128EBF"/>
<path d="M72.8699 19.3217C73.1388 19.3217 73.3481 19.2322 73.5269 19.0828C73.7064 18.9037 73.7958 18.6947 73.7958 18.4557C73.7958 18.187 73.7064 17.9779 73.5269 17.7987C73.3481 17.6196 73.1388 17.5299 72.8699 17.5299H71.7055V16.4847C71.7055 16.2159 71.6154 15.977 71.4366 15.768C71.2571 15.5888 71.0187 15.4694 70.7498 15.4694C70.451 15.4694 70.2417 15.559 70.0331 15.768C69.8536 15.9472 69.7344 16.1861 69.7344 16.4847V17.5299H68.988C68.719 17.5299 68.5097 17.6196 68.3309 17.7688C68.1514 17.948 68.062 18.1571 68.062 18.396C68.062 18.6648 68.1514 18.8738 68.3309 19.053C68.5097 19.2322 68.719 19.3217 68.988 19.3217H69.7344V23.8312C69.7344 24.3687 69.8238 24.7868 69.9735 25.0854C70.1225 25.3841 70.3318 25.623 70.6001 25.7723C70.8392 25.9216 71.1081 26.0112 71.377 26.041C71.6452 26.0709 71.9141 26.1008 72.1532 26.1008C72.5414 26.1008 72.8997 26.0112 73.2282 25.8021C73.5567 25.5931 73.7362 25.3542 73.7362 25.0556C73.7362 24.8167 73.6759 24.6076 73.5567 24.4583C73.4375 24.309 73.2878 24.2492 73.1388 24.2492C72.9891 24.2492 72.8699 24.2791 72.7507 24.309C72.6308 24.3687 72.5116 24.3687 72.3923 24.3687C72.2725 24.3687 72.1532 24.3388 72.0638 24.309C71.9737 24.2791 71.8843 24.1895 71.8247 24.0999C71.7651 24.0103 71.7353 23.8909 71.7353 23.7117V19.3217H72.8699Z" fill="#128EBF"/>
<path fill-rule="evenodd" clip-rule="evenodd" d="M80.7841 17.5299C81.2617 17.7688 81.7101 18.0973 82.0982 18.4855C82.4863 18.8738 82.785 19.3516 83.0241 19.8593C83.2328 20.3968 83.3527 20.9344 83.3527 21.5316C83.3527 21.7705 83.2626 22.0094 83.054 22.1587C82.8447 22.3081 82.6354 22.3976 82.3671 22.3976H76.9618C77.0214 22.6963 77.1108 22.9651 77.2605 23.204C77.499 23.5922 77.8275 23.9207 78.2156 24.1298C78.6044 24.3388 78.9925 24.4582 79.4403 24.4582C79.8284 24.4582 80.1569 24.4284 80.396 24.3687C80.6351 24.3089 80.8139 24.2193 80.9636 24.1298C81.0218 24.0948 81.0754 24.0598 81.1263 24.0266C81.2058 23.9748 81.2787 23.9273 81.3518 23.8909C81.5604 23.8013 81.7399 23.7415 81.9187 23.7415C82.1578 23.7415 82.3671 23.8311 82.5161 23.9804C82.6658 24.1298 82.7552 24.3388 82.7552 24.5478C82.7552 24.8465 82.6056 25.1153 82.3068 25.3542C82.0386 25.5931 81.62 25.8021 81.1127 25.9813C80.6046 26.1605 80.0675 26.2501 79.5297 26.2501C78.6044 26.2501 77.7977 26.0709 77.1108 25.6827C76.424 25.2944 75.8862 24.7569 75.5279 24.0999C75.1696 23.413 74.9907 22.6664 74.9907 21.8303C74.9907 20.8447 75.1994 20.0085 75.5881 19.3217C75.9763 18.6349 76.4836 18.1272 77.1407 17.7389C77.7977 17.3507 78.4845 17.1715 79.2012 17.1715C79.7688 17.1715 80.2761 17.291 80.7841 17.5299ZM78.3057 19.1127C78.007 19.2023 77.7679 19.3516 77.5586 19.5606C77.3499 19.7696 77.2003 20.0384 77.0512 20.3669C77.0363 20.4267 77.0214 20.4939 77.0065 20.5611C76.9916 20.6283 76.9767 20.6954 76.9618 20.7552H81.2617V20.6357C81.2617 20.3371 81.1425 20.0384 80.9332 19.7995C80.7245 19.5606 80.4854 19.3516 80.1867 19.2023C79.888 19.0529 79.5595 18.9932 79.231 18.9932C78.9025 18.9932 78.5739 19.0231 78.3057 19.1127Z" fill="#128EBF"/>
<path fill-rule="evenodd" clip-rule="evenodd" d="M92.1324 17.2014C92.4311 17.2014 92.6702 17.291 92.849 17.4702C93.0285 17.6494 93.1179 17.8883 93.1477 18.187V25.0854C93.1477 25.3841 93.0583 25.623 92.8788 25.8021C92.6702 26.0112 92.4609 26.1008 92.1622 26.1008C91.8635 26.1008 91.6244 25.9814 91.4456 25.8021C91.2661 25.623 91.1766 25.3841 91.1766 25.1153C91.0574 25.2646 90.9077 25.4139 90.6991 25.5632C90.4302 25.7723 90.1315 25.9216 89.7732 26.0709C89.4148 26.2203 89.0267 26.28 88.6088 26.28C87.8319 26.28 87.145 26.1008 86.5476 25.7126C85.921 25.3243 85.4428 24.7868 85.0845 24.0999C84.7262 23.4131 84.5474 22.6366 84.5474 21.7407C84.5474 20.8448 84.7262 20.0683 85.0845 19.3815C85.4428 18.6946 85.921 18.1571 86.5178 17.7688C87.1152 17.3806 87.8021 17.2014 88.5187 17.2014C88.9671 17.2014 89.4148 17.2612 89.803 17.4105C90.1911 17.5598 90.5196 17.739 90.8183 17.9481L90.8249 17.953C90.942 18.0409 91.0591 18.1289 91.1468 18.2168C91.1468 17.9182 91.2363 17.6793 91.4157 17.5001C91.6244 17.291 91.8337 17.2014 92.1324 17.2014ZM90.1017 24.1298C90.46 23.8909 90.7289 23.5624 90.9375 23.1443C91.1468 22.7262 91.2363 22.2484 91.2363 21.7407C91.2363 21.233 91.1468 20.7552 90.9375 20.3371C90.7289 19.919 90.46 19.5905 90.1017 19.3516C89.7434 19.1127 89.3254 18.9933 88.8472 18.9933C88.3697 18.9933 87.9518 19.1127 87.5934 19.3516C87.2344 19.5905 86.9662 19.919 86.7569 20.3371C86.5476 20.7552 86.4582 21.2032 86.4582 21.7407C86.4582 22.2783 86.5476 22.7262 86.7569 23.1443C86.9662 23.5624 87.2344 23.8909 87.5934 24.1298C87.9518 24.3687 88.3697 24.4882 88.8472 24.4882C89.3254 24.4882 89.7434 24.3687 90.1017 24.1298Z" fill="#128EBF"/>
<path d="M102.824 23.8311C102.585 23.8013 102.376 23.8311 102.137 23.9506C101.868 24.0999 101.569 24.1895 101.271 24.2492C100.973 24.309 100.674 24.3388 100.375 24.3388C99.8374 24.3388 99.3301 24.2492 98.8823 24.0999C98.4339 23.9506 98.016 23.7117 97.6875 23.3832C97.359 23.0547 97.0901 22.6366 96.8814 22.1588C96.7019 21.681 96.5827 21.0837 96.5827 20.4267C96.5827 19.8593 96.6721 19.3516 96.8212 18.8738C97.0007 18.396 97.2398 18.0077 97.5683 17.6494C97.8968 17.291 98.2849 17.0521 98.7625 16.8431C99.2407 16.6639 99.748 16.5743 100.345 16.5743C100.674 16.5743 100.973 16.6042 101.241 16.6639C101.54 16.7236 101.809 16.8132 102.077 16.9326C102.317 17.0521 102.525 17.082 102.764 17.0521C102.974 17.0222 103.182 16.9326 103.302 16.7236C103.511 16.4847 103.6 16.186 103.541 15.8874C103.481 15.5888 103.332 15.3499 103.033 15.2304C102.615 15.0214 102.197 14.872 101.749 14.7526C101.301 14.6331 100.823 14.6033 100.345 14.6033C99.5089 14.6033 98.7028 14.7526 97.9862 15.0513C97.2696 15.3499 96.6423 15.7381 96.1045 16.2757C95.5674 16.7833 95.1792 17.4105 94.8805 18.1272C94.5818 18.8439 94.4321 19.6204 94.4321 20.4566C94.4321 21.442 94.5818 22.2782 94.9103 23.0248C95.2388 23.7714 95.6568 24.3687 96.2244 24.8764C96.7616 25.3542 97.3888 25.7424 98.1054 25.9813C98.8221 26.2202 99.5692 26.3695 100.345 26.3695C100.674 26.3695 100.973 26.3397 101.271 26.3099C101.569 26.2501 101.868 26.1904 102.167 26.1008C102.466 26.0112 102.764 25.8917 103.033 25.7424C103.302 25.623 103.481 25.4139 103.541 25.1153C103.6 24.8166 103.511 24.5479 103.302 24.2791C103.242 23.9805 103.063 23.861 102.824 23.8311Z" fill="#43BEAE"/>
<path fill-rule="evenodd" clip-rule="evenodd" d="M111.574 17.5001C111.783 17.291 111.993 17.2014 112.291 17.2014C112.559 17.2014 112.799 17.291 113.038 17.4702C113.217 17.6494 113.307 17.8883 113.307 18.187V25.0854C113.307 25.3841 113.217 25.623 113.038 25.8021C112.828 26.0112 112.589 26.1008 112.321 26.1008C112.022 26.1008 111.783 25.9814 111.604 25.8021C111.425 25.623 111.336 25.3841 111.336 25.1153C111.216 25.2646 111.067 25.4139 110.857 25.5632C110.589 25.7723 110.29 25.9216 109.932 26.0709C109.573 26.2203 109.185 26.28 108.767 26.28C107.991 26.28 107.304 26.1008 106.706 25.7126C106.079 25.3243 105.602 24.7868 105.243 24.0999C104.885 23.4131 104.706 22.6366 104.706 21.7407C104.706 20.8448 104.885 20.0683 105.243 19.3815C105.602 18.6946 106.079 18.1571 106.677 17.7688C107.274 17.3806 107.961 17.2014 108.678 17.2014C109.125 17.2014 109.573 17.2612 109.962 17.4105C110.35 17.5598 110.678 17.739 110.977 17.9481C111.096 18.0376 111.216 18.1272 111.306 18.2168C111.306 17.9182 111.395 17.6793 111.574 17.5001ZM110.26 24.1298C110.619 23.8909 110.887 23.5624 111.096 23.1443C111.276 22.7262 111.395 22.2484 111.395 21.7407C111.395 21.233 111.306 20.7552 111.096 20.3371C110.887 19.919 110.619 19.5905 110.26 19.3516C109.901 19.1127 109.484 18.9933 109.006 18.9933C108.528 18.9933 108.11 19.1127 107.752 19.3516C107.393 19.5905 107.124 19.919 106.916 20.3371C106.706 20.7552 106.617 21.2032 106.617 21.7407C106.617 22.2783 106.706 22.7262 106.916 23.1443C107.124 23.5624 107.393 23.8909 107.752 24.1298C108.11 24.3687 108.528 24.4882 109.006 24.4882C109.484 24.4882 109.901 24.3687 110.26 24.1298Z" fill="#43BEAE"/>
<path d="M120.772 17.4702C120.533 17.291 120.264 17.2014 119.936 17.2014C119.668 17.2014 119.399 17.2313 119.13 17.291C118.861 17.3508 118.592 17.4702 118.354 17.5897C118.115 17.739 117.905 17.8883 117.697 18.0974C117.547 18.2466 117.458 18.396 117.338 18.5752V18.3363C117.338 18.0675 117.248 17.8286 117.069 17.6195C116.89 17.4403 116.651 17.3209 116.353 17.3209C116.054 17.3209 115.845 17.4105 115.636 17.6195C115.457 17.7987 115.367 18.0376 115.367 18.3363V25.0854C115.367 25.3841 115.457 25.5931 115.636 25.8021C115.815 25.9814 116.054 26.1008 116.353 26.1008C116.621 26.1008 116.86 26.0112 117.069 25.8021C117.248 25.623 117.338 25.3841 117.338 25.0854V21.2032C117.338 20.815 117.398 20.4566 117.487 20.1878C117.577 19.8892 117.726 19.6503 117.905 19.4711C118.085 19.262 118.264 19.1426 118.473 19.0231C118.682 18.9335 118.861 18.8738 119.07 18.8738C119.279 18.8738 119.488 18.9037 119.637 18.9933C119.817 19.0828 119.996 19.1127 120.205 19.1127C120.414 19.1127 120.623 19.0231 120.802 18.8738C120.981 18.7245 121.071 18.4557 121.071 18.0974C121.101 17.8883 121.011 17.6494 120.772 17.4702Z" fill="#43BEAE"/>
<path fill-rule="evenodd" clip-rule="evenodd" d="M130 21.5317C130 21.7706 129.911 22.0095 129.701 22.1589C129.493 22.338 129.254 22.4276 129.015 22.3978H123.639C123.699 22.6964 123.789 22.9651 123.938 23.2041C124.177 23.5923 124.505 23.9208 124.894 24.1298C125.282 24.3389 125.67 24.4583 126.118 24.4583C126.506 24.4583 126.835 24.4285 127.073 24.3687C127.312 24.309 127.492 24.2194 127.641 24.1298C127.701 24.0941 127.755 24.0583 127.807 24.0245C127.886 23.9735 127.957 23.9268 128.029 23.8909C128.238 23.8013 128.417 23.7416 128.597 23.7416C128.836 23.7416 129.044 23.8312 129.194 23.9805C129.343 24.1298 129.432 24.3389 129.432 24.5479C129.432 24.8465 129.283 25.1153 128.985 25.3542C128.716 25.5931 128.298 25.8022 127.791 25.9814C127.283 26.1605 126.745 26.2502 126.208 26.2502C125.282 26.2502 124.476 26.071 123.789 25.6827C123.102 25.2945 122.564 24.757 122.206 24.1C121.847 23.4131 121.668 22.6665 121.668 21.8303C121.668 20.8449 121.877 20.0087 122.265 19.3218C122.654 18.6349 123.162 18.0974 123.819 17.739C124.476 17.3508 125.162 17.1716 125.879 17.1716C126.447 17.1716 126.954 17.291 127.462 17.53C127.94 17.7689 128.387 18.0974 128.775 18.4856C129.134 18.8738 129.432 19.3218 129.672 19.8593C129.881 20.3969 130 20.9344 130 21.5317ZM124.953 19.1127C124.655 19.2023 124.416 19.3516 124.207 19.5607C123.998 19.7697 123.819 20.0385 123.699 20.367C123.684 20.4267 123.669 20.4939 123.654 20.5611C123.639 20.6283 123.624 20.6955 123.609 20.7552H127.91V20.6357C127.88 20.3372 127.791 20.0385 127.581 19.7996C127.372 19.5607 127.134 19.3516 126.835 19.2023C126.536 19.053 126.208 18.9933 125.879 18.9933C125.551 18.9933 125.222 19.0232 124.953 19.1127Z" fill="#43BEAE"/>
<path d="M30.4038 37.0906H18.7574C8.3647 37.0906 -0.176071 28.6392 0.00275815 18.2168C0.18225 8.15278 8.42431 0 18.5481 0C23.5354 0 28.1645 1.79181 31.6285 5.04697C34.7043 7.94375 36.586 11.7961 37.0039 16.0069C37.0934 16.9924 36.3171 17.8585 35.3316 17.8585C34.4659 17.8585 33.7486 17.2313 33.6592 16.3652C33.3306 12.9608 31.8079 9.85497 29.3288 7.49574C26.4921 4.83787 22.6697 3.37458 18.5481 3.37458C10.3954 3.37458 3.70586 9.8251 3.37734 17.9181C2.98921 26.5786 10.0669 33.7459 18.7275 33.7459H30.374C31.2999 33.7459 32.0464 34.4925 32.0464 35.4182C32.0762 36.344 31.3297 37.0906 30.4038 37.0906Z" fill="#43BEAE"/>
<path d="M14.9648 18.5453C14.9648 19.5308 14.1581 20.367 13.1427 20.367C12.1572 20.367 11.3213 19.5607 11.3213 18.5453C11.3213 17.5599 12.1273 16.7535 13.1427 16.7535C14.1581 16.7535 14.9648 17.5599 14.9648 18.5453Z" fill="#128EBF"/>
<path d="M20.2509 18.5453C20.2509 19.5308 19.4449 20.367 18.4295 20.367C17.4439 20.367 16.6074 19.5607 16.6074 18.5453C16.6074 17.5599 17.4141 16.7535 18.4295 16.7535C19.4449 16.7535 20.2509 17.5599 20.2509 18.5453Z" fill="#128EBF"/>
<path d="M25.7753 18.5453C25.7753 19.5308 24.9693 20.367 23.9539 20.367C22.9684 20.367 22.1318 19.5607 22.1318 18.5453C22.1318 17.5599 22.9386 16.7535 23.9539 16.7535C24.9693 16.7535 25.7753 17.5599 25.7753 18.5453Z" fill="#128EBF"/>
<path d="M42.4992 26.4292H37.1833V21.1135C37.1833 20.1579 36.4071 19.3516 35.4215 19.3516C34.4658 19.3516 33.6597 20.128 33.6597 21.1135V26.4292H28.3438C27.3881 26.4292 26.582 27.2057 26.582 28.1912C26.582 29.1767 27.3583 29.9531 28.3438 29.9531H33.6597V35.2689C33.6597 36.2245 34.436 37.0308 35.4215 37.0308C36.3773 37.0308 37.1833 36.2543 37.1833 35.2689V29.9531H42.4992C43.4549 29.9531 44.261 29.1767 44.261 28.1912C44.261 27.2057 43.4549 26.4292 42.4992 26.4292Z" fill="#72CEED"/>
</svg>
